<?xml version="1.0" encoding="utf-8"?>
<!-- Generator: Adobe Illustrator 24.0.0, SVG Export Plug-In . SVG Version: 6.00 Build 0)  -->
<svg version="1.1" xmlns="http://www.w3.org/2000/svg" xmlns:xlink="http://www.w3.org/1999/xlink" x="0px" y="0px"
	 viewBox="0 0 1027.7 397.5" style="enable-background:new 0 0 1027.7 397.5;" xml:space="preserve">
<style type="text/css">
	.st0{fill:none;stroke:#999999;stroke-width:2;}
	.st1{fill:none;stroke:#58B35B;stroke-width:2;}
	.st2{fill:none;stroke:#58B35B;stroke-width:2;stroke-dasharray:15.1267,15.1267;}
	.st3{fill:#333333;stroke:#999999;stroke-width:2;}
	.st4{fill:#333333;stroke:#999999;stroke-width:2;stroke-linecap:round;stroke-linejoin:round;}
	.st5{fill:none;stroke:#58B35B;stroke-width:2;stroke-dasharray:15.9625,15.9625;}
	.st6{fill:none;stroke:#58B35B;stroke-width:2;stroke-dasharray:13.0625,13.0625;}
	.st7{fill:none;stroke:#58B35B;stroke-width:2;stroke-dasharray:16.8996,16.8996;}
	.st8{fill:none;stroke:#58B35B;stroke-width:2;stroke-dasharray:11.9721,11.9721;}
	.st9{fill:none;stroke:#58B35B;stroke-width:2;stroke-dasharray:13.6753,13.6753;}
	.st10{fill:#333333;}
	.st11{fill:none;stroke:#999999;stroke-width:2;stroke-linecap:round;stroke-linejoin:round;}
</style>
	<g id="bg">
	<path class="st0" d="M920.9,68.8L920.9,68.8c-4.5,0-8.5-2.5-10.4-6.5c-16.6-33.8-51.3-57.1-91.5-57.1c-56.3,0-102,45.6-102,102v0
		c0,3.6-3.9,5.8-7,4c-9.7-5.8-21.3-8.7-33.6-7.7c-27.8,2.5-49.2,24.9-50.5,52.8c-1.5,31.9,24,58.2,55.6,58.2c7.7,0,15-1.6,21.7-4.4
		c8.5-3.6,18.2-3.1,26.2,1.6c5.7,3.3,12.2,5.1,19.3,5.1c8.5,0,16.3-2.7,22.6-7.3c6.2-4.5,14.1-5.7,21.5-3.7
		c8.4,2.2,17.2,3.4,26.2,3.4c14.7,0,28.6-3.1,41.2-8.7c8.8-3.9,18.8-3.5,27.3,1.1c10.6,5.8,22.9,8.9,36,8.4
		c37.2-1.3,67.2-31.7,68.1-68.9C992.4,101.3,960.4,68.8,920.9,68.8z"/>
		<path class="st0" d="M531.8,109.6c-1.9-0.1-3.7,0-5.5,0.1c-10.1,0.6-19.9-4.3-25.5-12.7c-13.6-20.7-37.1-34.3-63.7-34.3
		c-27.5,0-51.6,14.5-65,36.3c-5.6,9-16.3,13.3-26.7,11.4c-3.1-0.6-6.3-0.9-9.5-0.9c-19.8,0-37.1,10.9-46.1,27
		c-3.6,6.4-10.7,10.1-18,9.9c-0.9,0-1.8,0-2.8,0.1c-17.7,1-31.8,15.7-32.3,33.4c-0.5,19.4,15.1,35.3,34.4,35.3
		c6.8,0,13.2-2,18.5-5.4c6.4-4.1,14.5-4.6,21.2-0.9c7.5,4,16,6.3,25.1,6.3c7,0,13.7-1.4,19.9-3.9c5.8-2.4,12.3-2.3,18,0.4
		c4.5,2.2,9.6,3.5,15,3.5c4.4,0,8.6-0.8,12.5-2.3c4.7-1.8,9.8-2.1,14.6-0.7c6.8,2,13.9,3,21.3,3c12.6,0,24.5-3.1,35-8.5
		c9.7-5,21.2-4.6,30.6,1c7.9,4.7,17.2,7.4,27,7.4c29.9,0,54-24.8,52.8-55C581.5,133,559.2,110.7,531.8,109.6z"/>
</g>
	<g id="route_3">
	<g>
		<g>
			<line class="st1" x1="317.6" y1="313.9" x2="325.1" y2="313.9"/>
			<line class="st2" x1="340.2" y1="313.9" x2="877.2" y2="313.9"/>
			<line class="st1" x1="884.8" y1="313.9" x2="892.3" y2="313.9"/>
		</g>
	</g>
</g>
	<g id="car_5">
	<g id="voiture_5_" transform="translate(-1066.75 -281.75)">
		<path id="Tracé_139_5_" class="st3" d="M1577.2,619h-5.6c-8.1,0-6.7-8.1-6.7-8.1v-8.8c0-3.3,0.7-4.7,5.3-8.5s27.3-16.1,49-16.1
			c21.6,0,30.4,15.5,43.8,15.5c13.4,0,18.6,9.4,18.6,17.9c0,8.5-8.3,8.1-8.3,8.1h-8.5"/>
		<path id="Rectangle_42_5_" class="st4" d="M1664.7,619L1664.7,619c0,7.3-5.9,13.1-13.1,13.1l0,0c-7.3,0-13.1-5.9-13.1-13.1l0,0
			c0-7.3,5.9-13.1,13.1-13.1l0,0C1658.8,605.9,1664.7,611.8,1664.7,619z"/>
		<path id="Rectangle_43_5_" class="st4" d="M1604,619L1604,619c0,7.3-5.9,13.1-13.1,13.1l0,0c-7.3,0-13.1-5.9-13.1-13.1l0,0
			c0-7.3,5.9-13.1,13.1-13.1l0,0C1598.1,605.9,1604,611.8,1604,619z"/>
		<path id="Tracé_138_5_" class="st3" d="M1612.7,619h25.7"/>
	</g>
</g>
	<g id="route_2">
	<g>
		<g>
			<line class="st1" x1="317.6" y1="355" x2="325.6" y2="355"/>
			<line class="st5" x1="341.6" y1="355" x2="876.3" y2="355"/>
			<line class="st1" x1="884.3" y1="355" x2="892.3" y2="355"/>
		</g>
	</g>
</g>
	<g id="routes_5-6">
	<g>
		<g>
			<line class="st1" x1="346.4" y1="256" x2="352.9" y2="256"/>
			<line class="st6" x1="366" y1="256" x2="908.1" y2="256"/>
			<line class="st1" x1="914.6" y1="256" x2="921.1" y2="256"/>
		</g>
	</g>
		<g>
		<g>
			<line class="st1" x1="317.6" y1="394.3" x2="326.1" y2="394.3"/>
			<line class="st7" x1="343" y1="394.3" x2="875.3" y2="394.3"/>
			<line class="st1" x1="883.8" y1="394.3" x2="892.3" y2="394.3"/>
		</g>
	</g>
		<g>
		<g>
			<line class="st1" x1="317.6" y1="229.8" x2="323.6" y2="229.8"/>
			<line class="st8" x1="335.6" y1="229.8" x2="880.3" y2="229.8"/>
			<line class="st1" x1="886.3" y1="229.8" x2="892.3" y2="229.8"/>
		</g>
	</g>
</g>
	<g id="route_4">
	<g>
		<g>
			<line class="st1" x1="317.6" y1="284.9" x2="324.6" y2="284.9"/>
			<line class="st9" x1="338.3" y1="284.9" x2="878.4" y2="284.9"/>
			<line class="st1" x1="885.3" y1="284.9" x2="892.3" y2="284.9"/>
		</g>
	</g>
</g>
	<g id="car_1">
	<g id="voiture_1_" transform="translate(-1066.75 -281.75)">
		<path id="Tracé_139_1_" class="st3" d="M1814,653.9h-8.5c0,0-8.3,0.4-8.3-8.1s5.2-17.9,18.6-17.9c13.4,0,22.2-15.5,43.8-15.5
			s44.3,12.3,49,16.1s5.3,5.2,5.3,8.5v8.8c0,0,1.4,8.1-6.7,8.1h-5.6"/>
		<path id="Rectangle_42_1_" class="st4" d="M1827.2,640.7L1827.2,640.7c7.3,0,13.1,5.9,13.1,13.1l0,0c0,7.3-5.9,13.1-13.1,13.1l0,0
			c-7.3,0-13.1-5.9-13.1-13.1l0,0C1814,646.6,1819.9,640.7,1827.2,640.7z"/>
		<path id="Rectangle_43_1_" class="st4" d="M1887.9,640.7L1887.9,640.7c7.3,0,13.1,5.9,13.1,13.1l0,0c0,7.3-5.9,13.1-13.1,13.1l0,0
			c-7.3,0-13.1-5.9-13.1-13.1l0,0C1874.8,646.6,1880.6,640.7,1887.9,640.7z"/>
		<path id="Tracé_138_1_" class="st3" d="M1840.3,653.9h25.7"/>
	</g>
</g>
	<g id="car_4">
	<g id="voiture_4_" transform="translate(-1066.75 -281.75)">
		<path id="Tracé_139_4_" class="st3" d="M1761.8,545.7h-5.6c-8.1,0-6.7-8.1-6.7-8.1v-8.8c0-3.3,0.7-4.7,5.3-8.5s27.3-16.1,49-16.1
			c21.6,0,30.4,15.5,43.8,15.5c13.4,0,18.6,9.4,18.6,17.9c0,8.5-8.3,8.1-8.3,8.1h-8.5"/>
		<path id="Rectangle_42_4_" class="st4" d="M1849.3,545.7L1849.3,545.7c0,7.3-5.9,13.1-13.1,13.1l0,0c-7.3,0-13.1-5.9-13.1-13.1
			l0,0c0-7.3,5.9-13.1,13.1-13.1l0,0C1843.4,532.6,1849.3,538.5,1849.3,545.7z"/>
		<path id="Rectangle_43_4_" class="st4" d="M1788.6,545.7L1788.6,545.7c0,7.3-5.9,13.1-13.1,13.1l0,0c-7.3,0-13.1-5.9-13.1-13.1
			l0,0c0-7.3,5.9-13.1,13.1-13.1l0,0C1782.7,532.6,1788.6,538.5,1788.6,545.7z"/>
		<path id="Tracé_138_4_" class="st3" d="M1797.4,545.7h25.7"/>
	</g>
</g>
	<g id="car_2">
	<g id="voiture_2_" transform="translate(-1066.75 -281.75)">
		<path id="Tracé_139_2_" class="st3" d="M1697.3,576.1h-8.5c0,0-8.3,0.4-8.3-8.1c0-8.5,5.2-17.9,18.6-17.9
			c13.4,0,22.2-15.5,43.8-15.5c21.6,0,44.3,12.3,49,16.1s5.3,5.2,5.3,8.5v8.8c0,0,1.4,8.1-6.7,8.1h-5.6"/>
		<path id="Rectangle_42_2_" class="st4" d="M1710.4,563L1710.4,563c7.3,0,13.1,5.9,13.1,13.1l0,0c0,7.3-5.9,13.1-13.1,13.1l0,0
			c-7.3,0-13.1-5.9-13.1-13.1l0,0C1697.3,568.9,1703.2,563,1710.4,563z"/>
		<path id="Rectangle_43_2_" class="st4" d="M1771.1,563L1771.1,563c7.3,0,13.1,5.9,13.1,13.1l0,0c0,7.3-5.9,13.1-13.1,13.1l0,0
			c-7.3,0-13.1-5.9-13.1-13.1l0,0C1758,568.9,1763.9,563,1771.1,563z"/>
		<path id="Tracé_138_2_" class="st3" d="M1723.6,576.1h25.7"/>
	</g>
</g>
	<g id="car_3">
	<g id="voiture_3_" transform="translate(-1066.75 -281.75)">
		<path id="Tracé_139_3_" class="st3" d="M1504.1,519.5h-8.5c0,0-8.3,0.4-8.3-8.1s5.2-17.9,18.6-17.9c13.4,0,22.2-15.5,43.8-15.5
			c21.6,0,44.3,12.3,49,16.1c4.6,3.8,5.3,5.2,5.3,8.5v8.8c0,0,1.4,8.1-6.7,8.1h-5.6"/>
		<path id="Rectangle_42_3_" class="st4" d="M1517.2,506.3L1517.2,506.3c7.3,0,13.1,5.9,13.1,13.1l0,0c0,7.3-5.9,13.1-13.1,13.1l0,0
			c-7.3,0-13.1-5.9-13.1-13.1l0,0C1504.1,512.2,1509.9,506.3,1517.2,506.3z"/>
		<path id="Rectangle_43_3_" class="st4" d="M1577.9,506.3L1577.9,506.3c7.3,0,13.1,5.9,13.1,13.1l0,0c0,7.3-5.9,13.1-13.1,13.1l0,0
			c-7.3,0-13.1-5.9-13.1-13.1l0,0C1564.8,512.2,1570.7,506.3,1577.9,506.3z"/>
		<path id="Tracé_138_3_" class="st3" d="M1530.3,519.5h25.7"/>
	</g>
</g>
	<g id="front">
	<path class="st10" d="M494,396.8c-0.9-94.2-61.2-112-96.7-114.3c-15-1-27.9-10.7-33-24.8c-32.5-90.4-98.9-105.4-135-106.4
		c-14.8-0.4-27.7-9.7-33.4-23.3C142.1-2.4,0,44.1,0,44.1v315.7c0,20.8,16.9,37.6,37.6,37.6h455.7C493.7,397.5,494,397.2,494,396.8z"
	/>
		<path class="st0" d="M0,44.1c0,0,142.1-46.6,196,83.9c5.7,13.8,19,22.9,33.9,23.3c36,1.1,101.2,16.3,133.8,104.7
		c5.6,15.1,19.5,25.4,35.5,26.7c35.7,2.8,94.1,21.7,94.8,114.8"/>
		<path class="st10" d="M741.1,397.5c0,0-4.7-61.7,61.3-66.2c11.7-0.8,20.7-10.7,20.4-22.4c-0.6-24.8,7.9-61.2,62.2-65.1
		c12-0.9,22.7-8,28.1-18.8c14.4-28.7,49.4-79.6,114.6-73.5v246H741.1z"/>
		<path class="st11" d="M741.1,397.5c0,0-4.7-62.2,62.1-66.2c11.3-0.7,20-10.1,19.6-21.5c-0.9-24.7,7.1-61.7,61.3-66
		c12.4-1,23.5-8.2,29.1-19.3c14.5-28.8,49.5-79.2,114.3-73"/>
</g>
</svg>
