<?xml version="1.0" encoding="utf-8"?>
<!-- Generator: Adobe Illustrator 24.0.0, SVG Export Plug-In . SVG Version: 6.00 Build 0)  -->
<svg version="1.1" xmlns="http://www.w3.org/2000/svg" xmlns:xlink="http://www.w3.org/1999/xlink" x="0px" y="0px"
     viewBox="0 0 689 678.5" style="enable-background:new 0 0 689 678.5;" xml:space="preserve">
<style type="text/css">
	.st0{fill:#333333;}
	.st1{fill:none;stroke:#EEEEEE;stroke-width:4;stroke-miterlimit:10;}
	.st2{fill:#333333;stroke:#EEEEEE;stroke-width:4;stroke-miterlimit:10;}
	.st3{fill:none;stroke:#58B35B;stroke-width:4;stroke-miterlimit:10;}
	.st4{fill:#58B35B;}
	.st5{fill:#333333;stroke:#58B35B;stroke-width:4;stroke-miterlimit:10;}
</style>
    <g id="bg">
	<rect class="st0" width="689" height="678.5"/>
</g>
    <g id="ordi">
	<g>
		<polygon class="st1" points="409.6,488.1 457.5,511.7 351.5,541.9 307.3,515.8 		"/>
        <path class="st2" d="M399.1,468v38.8c0,0-9.4,17.7-44.6,8.3v-36.5"/>
        <path class="st1" d="M521.5,438.7l-304,72.2c-16,0-29-13-29-29V294.9c0-16,6.8-24.1,29-29l304-72.2c16,0,29,13,29,29v187.1
			C550.5,425.8,540.4,435.4,521.5,438.7z"/>
	</g>
</g>
    <g id="liens">
	<line class="st3" x1="266.4" y1="465.8" x2="173.2" y2="580.7"/>
        <line class="st3" x1="459" y1="421.8" x2="560.1" y2="536.9"/>
        <line class="st3" x1="509.5" y1="288.1" x2="610.4" y2="213.4"/>
        <line class="st3" x1="361.3" y1="272.3" x2="308.2" y2="172.8"/>
        <line class="st3" x1="230.2" y1="347.9" x2="105.9" y2="313.6"/>
        <circle class="st4" cx="230.2" cy="347.9" r="6.5"/>
        <circle class="st4" cx="361.3" cy="272.3" r="6.5"/>
        <circle class="st4" cx="509.5" cy="288.1" r="6.5"/>
        <circle class="st4" cx="459" cy="421.8" r="6.5"/>
        <circle class="st4" cx="266.4" cy="465.8" r="6.5"/>
</g>
    <g id="poison">
	<g>
		<path class="st5" d="M656,144.8l15.6,5.1c7.5,2.4,12.6,9.4,12.6,17.3v86.9c0,10.1-8.2,18.2-18.2,18.2h-24.7h-24.7
			c-10.1,0-18.2-8.2-18.2-18.2v-86.9c0-7.9,5.1-14.9,12.6-17.3l15.6-5.1"/>
        <ellipse class="st3" cx="641.3" cy="131.6" rx="14.7" ry="4"/>
        <path class="st3" d="M626.6,131.6v13.1c0,0,13.4,9.2,29.3,0v-13.1"/>
        <line class="st3" x1="626.6" y1="193.7" x2="655.3" y2="222.3"/>
        <line class="st3" x1="655.3" y1="193.7" x2="625.6" y2="223.4"/>
	</g>
</g>
    <g id="bidon">
	<path class="st5" d="M653.7,491.4v166.1c0,6.9-24.8,12.5-55.3,12.5c-30,0-54.4-5.4-55.3-12.1l0-0.4V491.4"/>
        <g>
		<ellipse class="st3" cx="598.4" cy="491.4" rx="55.3" ry="12.5"/>
            <path class="st3" d="M543.1,605.3c0,0,2,12.2,55.3,12.1c0,0,49.6,1.1,55.3-12.5"/>
            <path class="st3" d="M543.1,544.2c0,0,2,12.2,55.3,12.1c0,0,49.6,1.1,55.3-12.5"/>
            <ellipse class="st3" cx="571" cy="491.4" rx="10.9" ry="3.1"/>
	</g>
</g>
    <g id="gaz">
	<g>
		<g>
			<path class="st5" d="M289.8,33.9c0,0,17.8,4.3,33.7,19.5c20.1,19,16.7,49,16.7,91.4S328.2,200,276.6,200S213,187.2,213,144.8
				s-3.4-72.4,16.7-91.4c16-15.1,33.7-19.5,33.7-19.5"/>
		</g>
        <ellipse class="st3" cx="276.6" cy="8.7" rx="13.2" ry="3.2"/>
        <path class="st3" d="M289.8,8.7v25.2c0,0-4.1,3.2-13.2,3.1c-9.5,0.1-13.2-3.1-13.2-3.1V8.7"/>
        <path class="st3" d="M274.7,24.6c0,0-19.9,9.3-23.9-1.7c0,0-1-4.7,11.7-2.8"/>
        <path class="st3" d="M289.8,25c0,0,14.3,0.6,9.1-4.6c0,0-4-4.6-9.1-2.6"/>
        <g>
			<g>
				<path class="st4" d="M285.2,115.2c1.9,0.2,3.6,1,5,2.1c0.1,0.1,0.2,0.2,0.2,0.3c0.1,0.2,0.1,0.3-0.1,0.5
					c-0.1,0.2-0.3,0.3-0.6,0.4c-0.6,0.2-1.3,0.5-1.9,0.7c-0.3,0.1-0.6,0.1-1-0.1c0,0,0,0,0,0c-0.9-0.6-1.8-0.9-2.8-0.9
					c-1-0.1-2,0.1-3,0.6c-0.9,0.4-1.6,1-2.2,1.8c-0.5,0.8-0.8,1.6-0.9,2.4c-0.1,0.8,0.2,1.6,0.6,2.3c0.7,1.1,1.4,2.2,2,3.3
					c0.4,0.7,0.9,1.2,1.4,1.6c0.5,0.4,1.1,0.7,1.7,0.8c1.3,0.3,2.6,0.2,3.8-0.3c0.9-0.4,1.7-1,2.2-1.7c0.6-0.7,0.9-1.6,1-2.5
					c0-0.4-0.1-0.9-0.2-1.4c-0.1-0.3-0.2-0.6-0.3-0.9c-1.4,0.6-2.8,1.2-4.2,1.8c-0.2,0.1-0.4,0.1-0.7,0c-0.2-0.1-0.4-0.2-0.5-0.4
					c-0.2-0.4-0.5-0.9-0.7-1.3c-0.2-0.5-0.1-0.8,0.4-1c2.2-1,4.4-1.9,6.7-2.8c0.5-0.2,0.9-0.1,1.1,0.4c0.1,0.3,0.3,0.5,0.4,0.8
					c0.1,0.2,0.3,0.5,0.4,0.9c0.1,0.2,0.2,0.6,0.4,1.2c0.2,0.7,0.3,1.3,0.4,1.7c0.1,1-0.1,1.9-0.4,3c-0.4,1.1-0.9,2.1-1.7,2.9
					c-0.8,0.8-1.7,1.5-2.8,2c-1.4,0.6-2.8,1-4.2,1c-1.4,0-2.8-0.3-4.1-1c-1.3-0.7-2.4-1.7-3.2-3c-0.7-1.1-1.4-2.2-2.1-3.3
					c-0.8-1.2-1.2-2.5-1.1-3.9c0-1.4,0.5-2.8,1.4-4c0.9-1.3,2.1-2.3,3.7-3.1C281.4,115.3,283.3,115,285.2,115.2z"/>
                <path class="st4" d="M318.5,125.4c-0.6,0.1-1.2,0.1-1.9,0.2c-0.2,0-0.4,0-0.5-0.1c-0.1-0.1-0.2-0.2-0.4-0.4
					c-1.1-2-2.3-3.9-3.6-5.9c-2,1.2-4,2.5-5.9,3.8c-0.1,1.3-0.3,2.6-0.4,3.9c0,0.3-0.1,0.5-0.2,0.6c-0.1,0.1-0.2,0.2-0.5,0.2
					c-0.6,0.1-1.1,0.3-1.7,0.4c-0.2,0.1-0.4,0-0.6-0.1c-0.2-0.1-0.3-0.2-0.4-0.5c0-0.1,0.1-3,0.5-8.9c0.4-5.9,0.8-9.1,0.9-9.9
					c0.1-0.2,0.1-0.4,0.2-0.5c0.1-0.1,0.3-0.2,0.5-0.3c0.9-0.2,1.7-0.4,2.6-0.5c0.2,0,0.4,0,0.6,0c0.1,0.1,0.3,0.1,0.4,0.2
					c0.1,0.1,0.2,0.2,0.2,0.2c4.2,5.2,7.8,10.7,10.9,16.3c0,0.1,0,0.2,0.1,0.3C319.3,125,319.1,125.3,318.5,125.4z M309.7,115.8
					c-0.4-0.5-0.6-0.8-0.6-0.9c-0.1-0.1-0.1-0.2-0.2-0.3c-0.1-0.1-0.2-0.2-0.2-0.3c-0.1-0.2-0.3-0.4-0.4-0.6c-0.2-0.3-0.5-0.6-0.7-1
					c-0.3,1.9-0.5,3.8-0.7,5.7c1.1-0.7,2.2-1.4,3.4-2.1C309.9,116.1,309.7,115.9,309.7,115.8z"/>
                <path class="st4" d="M341.4,122.6c-0.4,0.9-1,1.5-1.6,1.9c-1.2,0.8-2.9,1-5,0.9c-0.7-0.1-1.4-0.1-2-0.1
					c-1.2-0.1-2.2-0.3-3.2-0.8c-1-0.5-1.8-1.2-2.5-2c-0.4-0.5-0.7-1-0.9-1.6c-0.2-0.6-0.3-1-0.3-1.4c0-0.3,0-0.5-0.1-0.6
					c0,0,0,0,0,0c0-0.3,0-0.5,0.1-0.7c0.1-0.2,0.3-0.2,0.7-0.3c0.6,0,1.3,0,1.9,0c0.5,0,0.8,0.2,0.9,0.6c0.1,0.2,0.1,0.3,0.1,0.5
					c0,0.1,0,0.2,0,0.3c0,0.2,0.1,0.4,0.1,0.7c0.2,0.6,0.6,1.1,1.1,1.5c0.6,0.4,1.2,0.6,1.9,0.7c0.7,0,1.4,0.1,2.1,0.1
					c0.9,0.1,1.6-0.1,2.2-0.4c0.6-0.3,1-0.8,1.2-1.4c0-0.2,0.1-0.4,0.1-0.5c0.1-0.7-0.1-1.2-0.4-1.4c-0.3-0.2-0.7-0.4-1.2-0.6
					c-0.5-0.2-1.3-0.4-2.4-0.7c-0.2,0-0.5-0.1-1.1-0.3c-1.6-0.4-2.9-0.7-4-1.1c-1.1-0.4-2-0.8-2.8-1.5c-0.8-0.6-1.2-1.4-1.4-2.4
					c0-0.1,0-0.2,0-0.3c0,0,0-0.2-0.1-0.6c0-0.3,0-0.7,0-1.1c0,0,0,0,0,0c0.1-0.9,0.4-1.7,1-2.4c0.6-0.7,1.4-1.3,2.5-1.7
					c1-0.4,2.1-0.6,3.3-0.5c0.8,0,1.6,0.1,2.4,0.1c0.9,0.1,1.9,0.2,2.8,0.5c0.9,0.3,1.7,0.7,2.5,1.3c0.7,0.5,1.3,1.2,1.7,2
					c0.4,0.8,0.6,1.7,0.5,2.6c0,0.3-0.1,0.6-0.2,0.7c-0.1,0.1-0.4,0.2-0.8,0.1c-0.7-0.1-1.3-0.2-2-0.2c-0.3,0-0.5-0.1-0.7-0.3
					c-0.2-0.2-0.3-0.4-0.3-0.6c-0.1-1-0.4-1.8-0.9-2.2c-0.5-0.5-1.3-0.8-2.4-0.8c-0.8,0-1.6-0.1-2.4-0.1c-0.8,0-1.5,0.2-2.1,0.5
					c-0.6,0.4-1,0.9-1.1,1.5c0,0,0,0,0,0c0,0.3,0,0.5,0,0.6c0,0.5,0.3,0.8,0.7,1.1c0.4,0.3,0.9,0.5,1.3,0.7c1.2,0.3,2.3,0.6,3.5,0.9
					c0.5,0.1,1,0.3,1.5,0.4c1,0.3,1.8,0.6,2.3,0.8c0.7,0.3,1.4,0.6,2.1,1c0.6,0.4,1.1,1,1.5,1.6c0.4,0.6,0.5,1.4,0.5,2.1
					C342.1,120.9,341.8,121.8,341.4,122.6z"/>
			</g>
		</g>
	</g>
</g>
    <g id="charbon">
	<path class="st5" d="M87.9,281.9c-6.4,8.2-9.2,18.7-20.5,18.7s-20.5-8.4-20.5-18.7c0-6.7,3.9-7.7,9.7-11c3.2-1.8,6.8-7.7,10.9-7.7
		c5.2,0,12.4,7,16.1,9.9C85.5,274.8,90.8,278.1,87.9,281.9z"/>
        <path class="st5" d="M72.6,307.3c-3.8-12,10.8-19.3,24.1-19.3c4.6,0,6.1,5.9,9.8,7.7c5.1,2.5,11.8,1.7,13.4,6.4
		c0.6,1.6,3.1,8.2-8.5,11.4c-5.4,1.5,9.1,9.4-1.1,14.1c-4.8,2.2-7.4-1.1-13.6-1.1c-3.1,0-9-7-15.2-5.4
		C72.4,323.4,75,315.1,72.6,307.3z"/>
        <path class="st5" d="M49.4,292.5c0,7.4-6,13.4-13.4,13.4s-15.1-2.8-15.1-10.2c0-2.4,4.9-4.4,6-6.3c1.3-2.4,2.5-6,4.9-7.1
		c1.8-0.9,4.9,0.6,7.1,0.6C46.3,282.9,49.4,285.1,49.4,292.5z"/>
        <path class="st5" d="M76.5,305.5c0,3.5-6.3,5.2-9.8,7.5c-3.2,2.1-3.4,4.9-8.1,4.9c-6.2,0-16.9,3.6-19.4-6.3
		c-0.9-3.7,1.5-3.5,1.5-6.1c0-2.4,3.3-2.8,5.1-4.7c2-2.2,2.6-5.8,6.1-6.8c2.1-0.6,2.5,1.3,4.9,1.3c2,0,5.8-2,7.6-1.6
		c1.5,0.4,3,0.9,4.3,1.5c2.7,1.3,5-4.2,10.1,1.5C82.7,301.1,76.5,303.6,76.5,305.5z"/>
        <path class="st5" d="M31.5,313.9c6.9,3.3,2.3,8.2,0,9c-4.1,1.4-7.3-1.1-8.5-0.3c-1.9,1.3-3.5,0.7-6,0.7c-6.5,0-12.6-3.6-12.6-9.4
		c0-2.2,5.3-5.2,6.6-6.8c2.1-2.8,5.5-6.4,9.5-6.4C27,300.7,26.3,311.4,31.5,313.9z"/>
        <path class="st5" d="M128,322.6c0,3.7,4.4,6.4,8.1,6.4c3.7,0,2.7,2.2,9,0c3.7-1.3,3.9-7.4,1.7-9.3c-1.2-1-1.5-5.9-6.3-5.2
		c-0.9,0.1-3.4,1.1-4.4,1.1C132.4,315.7,128,318.9,128,322.6z"/>
</g>
    <g id="bouteille">
	<path class="st5" d="M100.5,547l22.5-8.9c4.9-2,10.5-1.6,15.1,0.9l21.5,11.8c1.5,0.8,2.8,1.9,3.8,3.2l2.9,3.6c2,2.6,5,4.2,8.2,4.7
		l3.6,0.5c2.9,0.4,5.6,1.8,7.6,3.9l3.5,3.7c1.7,1.8,3.9,3.1,6.4,3.7l8.6,2c2,0.5,3.9,1.4,5.4,2.8l6.3,5.5c1.3,1.2,2.9,2,4.6,2.5
		l10.2,3.2c1.1,0.4,2.2,0.9,3.2,1.5l11,7.2c0.7,0.4,1.4,0.8,2.1,1.1l9.5,3.9c0,0,10.6,7.6-7.5,40.6s-30.2,28.3-30.2,28.3l-11.5-6.3
		c-1.2-0.6-2.2-1.5-3.2-2.5l-4.3-4.6c-1.9-2-4.3-3.3-6.9-3.8l-3.9-0.7c-2.7-0.5-5.2-1.9-7.1-4l-2.2-2.5c-1.8-2-4.2-3.4-6.8-3.9
		l-4.2-0.9c-3.2-0.7-5.9-2.5-7.8-5.1h0c-2-2.8-5.1-4.7-8.5-5.3l-4.1-0.6c-2.5-0.4-4.8-1.5-6.6-3.1l-3.9-3.6c-1.6-1.4-3.5-2.5-5.6-3
		l-5.6-1.3c-1.1-0.3-2.2-0.7-3.2-1.2l-22.9-12.5c-4.6-2.5-7.9-7-8.9-12.2L86.8,572"/>
        <g>
		<ellipse transform="matrix(0.48 -0.8773 0.8773 0.48 -442.5248 361.6091)" class="st3" cx="83.8" cy="554.1" rx="14.2" ry="3.7"/>
            <path class="st3" d="M76.9,566.6l9.9,5.4c0,0,11.9-6.3,13.7-25l-9.9-5.4"/>
	</g>
        <path class="st5" d="M161.4,594.5l7.3,14.8c0,0,7.2,12.8,14.8,1.4C191.3,599.2,165.5,596.4,161.4,594.5z"/>
</g>
</svg>
