<?xml version="1.0" encoding="utf-8"?>
<!-- Generator: Adobe Illustrator 24.0.0, SVG Export Plug-In . SVG Version: 6.00 Build 0)  -->
<svg version="1.1" xmlns="http://www.w3.org/2000/svg" xmlns:xlink="http://www.w3.org/1999/xlink" x="0px" y="0px"
     viewBox="0 0 653.3 677.3" style="enable-background:new 0 0 653.3 677.3;" xml:space="preserve">
<style type="text/css">
	.st0{fill:#333333;}
	.st1{fill:none;stroke:#EEEEEE;stroke-width:4;stroke-miterlimit:10;}
	.st2{fill:none;stroke:#EEEEEE;stroke-width:2;stroke-miterlimit:10;}
	.st3{opacity:0.8;clip-path:url(#SVGID_2_);}
	.st4{fill:#333333;stroke:#EEEEEE;stroke-width:2;stroke-miterlimit:10;}
	.st5{fill:#333333;stroke:#999999;stroke-width:2;stroke-miterlimit:10;}
	.st6{fill:none;stroke:#999999;stroke-width:2;stroke-miterlimit:10;}
	.st7{fill:none;stroke:#58B35B;stroke-width:2;stroke-miterlimit:10;}
</style>
    <g id="bg">
	<rect class="st0" width="654.7" height="677.3"/>
</g>
    <g id="mail">
	<path class="st1" d="M121.2,406.9c0,0,107.5-37.4,407.2-52.5"/>
        <g>
		<path class="st1" d="M528.4,622.7L125.9,674c-9,1.1-16.2-5.2-16.2-14.2V424.1c0-9,7.3-17.2,16.2-18.3
			c150.7,6.1,302.1,2.8,402.5-51.4c9-1.1,16.2,5.2,16.2,14.2v235.9C544.7,613.4,537.4,621.6,528.4,622.7z"/>
	</g>
        <path class="st1" d="M109.7,659.8l202.7-235.4c0,0,32.8-43.7,65.4-6.5l166.9,184.5"/>
        <path class="st1" d="M114.8,412.3l193.9-248.8c0,0,31.2-48.6,63.2-6.8l163.1,198.6"/>
</g>
    <g id="ampoules">
	<path class="st2" d="M346.2,279c0,0,8-42.7,15.5-23.5c7.5,19.2-22.7,18.7-23.9,0.5c-1.2-18.2-0.7-31.5,4.7-24
		c5.3,7.5-0.5,36.9-15,36.3c-14.4-0.5-16-17.1-11.2-17.6c4.8-0.5,13.4,1.6,15,50.7c1.6,49.1-3.2,42.7-14.4,36.9
		c-11.2-5.9-5.3-27.2-5.3-27.2s0-17.6-19.2-36.9s2.1-74.8,49.7-72.6s62,48.1,34.2,86c0,0-13.4,17-12.3,37.1c0,0,0,9.8-6.4,17.6
		c0,0,5.3,11-6.4,11c0,0-53.4,2.1-20.8,4.3c0,0,47-3.2,16.6,4.3c0,0-19.1,0.3-25.2,0s-12.8,2.5,4.3,3.7c17,1.2,45.2-5.5,28.2,2.4
		h-34.3c0,0-11.5,1.8,9.7,3s36.1-2.7,23.4,3.3c0,0-30.4,0-33.4,0c-3,0-9.4,1.2,7.6,1.8c17,0.6,32.8,1.5,22.8,3.6s-44.6-2.1-23.4,2.4
		c0,0,37.1-0.8,19.7,3.3c0,0-19.2-0.8-19.2,0c0,0.8-4.9-1.7,4.6,5.2c9.4,7,6.3-4.6,6.3,12.2"/>
        <g>
		<defs>
			<path id="SVGID_1_" d="M139.2,402.9c0,0,137.3,13.7,282.6-13.6c0,0,94.5-22.4,107.5-40.8c12.9-18.4-124.6-89.1-124.6-89.1
				l-184.5,10.1L139.2,402.9z"/>
		</defs>
            <clipPath id="SVGID_2_">
			<use xlink:href="#SVGID_1_"  style="overflow:visible;"/>
		</clipPath>
            <g class="st3">
			<path class="st4" d="M243.3,416.5L243.3,416.5c1.3-3.3,2.3-6.8,2.9-10.4c4.1-25.8-13.4-50-39.2-54.2c-25.8-4.1-50,13.4-54.2,39.2
				c-0.9,5.5-0.8,10.9,0.2,16c0.1,0.8,0.3,1.7,0.6,2.7c0,0,0,0,0,0c0.5,1.9,1,3.7,1.7,5.5c7.6,24.6,8.2,30.8,8.2,30.8
				c1.2,38.6,22.9,34.4,22.9,34.4c15.2,0.2,16.8-10.9,23.3-21.8c3.3-5.4,10.8-14.3,17.6-22c5.1-3.7,9.5-8.5,12.8-14l0,0l0,0
				C241.3,420.8,242.4,418.7,243.3,416.5L243.3,416.5z"/>
                <path class="st2" d="M175.4,477.8c0,0,21.8-31.6,11.5-60.8c-10.3-29.2-17.8-15.4-12.6-12.5c5.2,2.9,13.5,11.9,23.9,2.2
				s9.5-23.6,3.5-22.1c-5.9,1.5-8.4,27,6.3,28.9c14.7,1.9,25.3-3.6,19-7.5c-6.3-3.8-22.5,4.1-24.3,15.5s-13.5,39.7-12,58.7"/>
		</g>
            <g class="st3">
			<path class="st4" d="M296.9,329.4L296.9,329.4c-0.9-3.4-2.2-6.8-3.9-10.1c-12.2-23.1-40.8-31.9-63.9-19.7s-31.9,40.8-19.7,63.9
				c2.6,4.9,5.9,9.2,9.8,12.7c0.6,0.6,1.2,1.2,2.1,1.8c0,0,0,0,0,0c1.5,1.2,3.1,2.3,4.7,3.4C246.8,396.4,251,401,251,401
				c24.1,30.2,39,13.7,39,13.7c12.3-8.9,6.8-18.8,5.6-31.4c-0.6-6.3,0-18,0.9-28.1c1.9-6.1,2.5-12.5,1.8-18.9v0l0,0
				C298,334,297.6,331.7,296.9,329.4L296.9,329.4z"/>
                <path class="st2" d="M279.5,419.2c0,0-1.6-38.4-27.3-55.5s-23.4-1.6-17.6-2.5c5.9-0.8,17.9,1.4,20.5-12.6s-6.6-24.5-10.4-19.8
				s9.5,26.6,22.4,19.3c12.9-7.3,18-18.1,10.7-17.4c-7.3,0.7-15.5,16.8-10.1,27c5.4,10.2,13.1,39.9,25.7,54.1"/>
		</g>
            <g class="st3">
			<path class="st4" d="M353.2,385.6L353.2,385.6c2.7-2.3,5.3-4.8,7.6-7.8c15.9-20.7,12-50.4-8.7-66.3c-20.7-15.9-50.4-12-66.3,8.7
				c-3.4,4.4-5.9,9.2-7.5,14.2c-0.3,0.8-0.6,1.6-0.8,2.6c0,0,0,0,0,0c-0.5,1.9-0.9,3.8-1.1,5.7c-5,25.2-7.5,31-7.5,31
				c-17.4,34.5,3.7,41.2,3.7,41.2c13.2,7.4,19.9-1.6,30.9-8c5.4-3.2,16.3-7.5,25.9-10.9c6.3-0.8,12.4-2.9,17.9-6.2l0,0l0,0
				C349.4,388.4,351.3,387.1,353.2,385.6L353.2,385.6z"/>
                <path class="st2" d="M264.2,407.1c0,0,34.2-17.4,39.1-48c4.8-30.5-8.3-22-5.1-17c3.2,5,6.2,16.9,20,13.4
				c13.8-3.5,19.5-16.2,13.6-17.7s-20.2,19.7-8.3,28.4s23.9,8.8,20.3,2.5c-3.7-6.4-21.7-7.1-28.8,2.1c-7.1,9.2-30.8,28.5-38.5,45.9"
                />
		</g>
            <g class="st3">
			<path class="st5" d="M418.4,398.2L418.4,398.2c-1-3.4-2.4-6.8-4.3-10c-12.9-22.7-41.8-30.6-64.5-17.7
				c-22.7,12.9-30.6,41.8-17.7,64.5c2.7,4.8,6.2,9,10.2,12.4c0.6,0.6,1.3,1.2,2.1,1.7c0,0,0,0,0,0c1.5,1.2,3.2,2.2,4.8,3.2
				c21.3,14.4,25.7,18.9,25.7,18.9c25.1,29.4,39.4,12.5,39.4,12.5c12-9.3,6.2-19,4.5-31.6c-0.8-6.3-0.6-18-0.1-28.1
				c1.7-6.1,2.1-12.6,1.2-18.9v0l0,0C419.6,402.8,419.1,400.5,418.4,398.2L418.4,398.2z"/>
                <path class="st6" d="M403.9,488.6c0,0-2.8-38.3-29.1-54.6c-26.3-16.3-23.5-0.9-17.6-1.9s18,0.8,20-13.3
				c2.1-14.1-7.4-24.3-11.1-19.4c-3.7,4.9,10.4,26.3,23,18.6c12.6-7.7,17.4-18.7,10.1-17.7c-7.3,0.9-15,17.3-9.2,27.3
				c5.7,10.1,14.3,39.4,27.4,53.2"/>
		</g>
            <g class="st3">
			<path class="st4" d="M449.5,314.4L449.5,314.4c-1-3.4-2.4-6.8-4.3-10c-12.9-22.7-41.8-30.6-64.5-17.7
				c-22.7,12.9-30.6,41.8-17.7,64.5c2.7,4.8,6.2,9,10.2,12.4c0.6,0.6,1.3,1.2,2.1,1.7c0,0,0,0,0,0c1.5,1.2,3.2,2.2,4.8,3.2
				c21.3,14.4,25.7,18.9,25.7,18.9c25.1,29.4,39.4,12.5,39.4,12.5c12-9.3,6.2-19,4.5-31.6c-0.8-6.3-0.6-18-0.1-28.1
				c1.7-6.1,2.1-12.6,1.2-18.9v0l0,0C450.7,319.1,450.2,316.7,449.5,314.4L449.5,314.4z"/>
                <path class="st2" d="M435,404.8c0,0-2.8-38.3-29.1-54.6c-26.3-16.3-23.5-0.9-17.6-1.9c5.8-1,18,0.8,20-13.3
				c2.1-14.1-7.4-24.3-11.1-19.4c-3.7,4.9,10.4,26.3,23,18.6c12.6-7.7,17.4-18.7,10.1-17.7c-7.3,0.9-15,17.3-9.2,27.3
				s14.3,39.4,27.4,53.2"/>
		</g>
            <g class="st3">
			<path class="st4" d="M514.1,390.7L514.1,390.7c1.9-3,3.5-6.2,4.8-9.7c8.8-24.6-4.1-51.7-28.7-60.4s-51.7,4.1-60.4,28.7
				c-1.9,5.2-2.7,10.6-2.7,15.8c-0.1,0.8-0.1,1.7,0.1,2.7c0,0,0,0,0,0c0.1,1.9,0.4,3.9,0.7,5.7c3,25.5,2.4,31.8,2.4,31.8
				c-5.9,38.2,16.3,38,16.3,38c14.9,3,18.5-7.6,26.9-17.1c4.2-4.7,13.2-12.1,21.3-18.4c5.7-2.7,10.9-6.6,15.2-11.4l0,0l0,0
				C511.3,394.6,512.8,392.7,514.1,390.7L514.1,390.7z"/>
                <path class="st2" d="M436.1,438.6c0,0,27.2-27.1,22.4-57.7c-4.8-30.5-14.7-18.4-10.1-14.6s11.1,14.1,23.1,6.5
				c12-7.6,13.6-21.4,7.5-21.1c-6.1,0.4-13.2,25,0.9,29.6c14.1,4.6,25.5,1,20-3.9c-5.5-4.9-22.9-0.1-26.7,10.8
				c-3.9,10.9-20.5,36.6-22.5,55.5"/>
		</g>
	</g>
</g>
    <g id="eclair1">
	<polyline class="st7" points="165.7,252.9 69.5,256.1 69.9,207.1 7.4,174.7 109.2,182.4 110.1,225.9 165.7,252.9 	"/>
</g>
    <g id="eclair2">
	<polyline class="st7" points="242,135.1 251.7,76.5 216.5,64.6 198.9,7.9 199.9,86.3 228.4,94.4 242,135.1 	"/>
</g>
    <g id="eclair3">
	<polyline class="st7" points="426.9,145.6 517.3,112.7 498.7,67.4 544.7,14.1 453,59.1 468.3,99.8 426.9,145.6 	"/>
</g>
    <g id="eclair4">
	<polyline class="st7" points="528.4,254.7 571,196.9 599.5,219.8 647.3,198.1 601.8,247.6 577.8,226 528.4,254.7 	"/>
</g>
</svg>
