<?xml version="1.0" encoding="utf-8"?>
<!-- Generator: Adobe Illustrator 24.0.0, SVG Export Plug-In . SVG Version: 6.00 Build 0)  -->
<svg version="1.1" xmlns="http://www.w3.org/2000/svg" xmlns:xlink="http://www.w3.org/1999/xlink" x="0px" y="0px"
     viewBox="0 0 596.1 677.3" style="enable-background:new 0 0 596.1 677.3;" xml:space="preserve">
<style type="text/css">
	.st0{fill:#333333;}
	.st1{fill:#58B35B;}
	.st2{fill:none;stroke:#EEEEEE;stroke-width:4;stroke-miterlimit:10;}
	.st3{fill:#EEEEEE;}
	.st4{fill:#333333;stroke:#58B35B;stroke-width:4;stroke-miterlimit:10;}
</style>
    <g id="bg">
	<rect class="st0" width="596.1" height="677.3"/>
</g>
    <g id="borne">
	<path class="st1" d="M132.7,195.9l70.7,19.7l255.1-27.8v-81.2c0,0,0.6-90.1-127.3-99.2C228.6,0,130.7,40.6,132.7,195.9z"/>
        <g>
		<path class="st2" d="M459,120.1C459,49.5,401.8,1.5,331.2,13S203.4,91,203.4,161.6v335.3l255.1-41.3V131.4
			C458.8,127.6,459,123.9,459,120.1z"/>
	</g>
        <path class="st2" d="M202,496.9L130.7,476l2.4-294.5c0,0-9.1-213.4,231.2-169.6"/>
        <path class="st2" d="M130.8,460.5l-45.4,8.2c-3.4,0.6-3.7,5.3-0.4,6.4l131.8,42.6l303.4-51.8L458.5,450"/>
        <path class="st2" d="M83.7,469.5c0,0-20.8,0.9-19.2,25.6c1.7,24.7-0.1,28.7-0.1,28.7s0.9,29.6-35,40.1
		c-10.6,3.1-15.3,4.8-20.3,10.3c-22.9,25,143.3,76.5,189,93.2c6.6,2.4,13.7,2.8,20.5,1.2l371.9-91.4c0,0,3.5-11.9-13.4-18.8
		c-29.5-12.1-36.9-49.1-36.2-71.1s-20.7-21.6-20.7-21.6"/>
        <g>
		<path class="st3" d="M320.3,159.5l-11.9,0.8L287,128.5l-0.3,0c0.8,5.9,1.3,10,1.5,12.5l1.5,20.7l-8.3,0.6l-3.1-44l11.8-0.8
			l21.5,31.6l0.2,0c-0.7-5.7-1.1-9.7-1.3-12.1l-1.5-20.8l8.4-0.6L320.3,159.5z"/>
            <path class="st3" d="M360.3,134.6c0.5,7.7-0.3,13.5-2.6,17.3c-2.3,3.9-6,6-11.2,6.4c-5.1,0.4-9-1.3-11.9-4.9
			c-2.8-3.6-4.5-9.2-5.1-16.6c-0.6-7.8,0.3-13.6,2.5-17.4c2.2-3.9,6-6,11.2-6.3c5.1-0.4,9,1.3,11.9,5
			C358.1,121.6,359.8,127.2,360.3,134.6z M338.8,136.1c0.4,5.4,1.1,9.2,2.2,11.5c1.1,2.3,2.8,3.3,5,3.2c2.2-0.2,3.6-1.4,4.4-3.9
			c0.8-2.4,1-6.3,0.6-11.7c-0.4-5.4-1.1-9.2-2.3-11.5c-1.1-2.3-2.8-3.4-4.9-3.2c-2.2,0.2-3.7,1.4-4.4,3.9
			C338.6,126.8,338.5,130.7,338.8,136.1z"/>
            <path class="st3" d="M398.4,128.6c0.6,8.7-0.7,15.3-4.1,19.8c-3.3,4.5-8.7,7.1-16.1,7.6c-2.6,0.2-4.6,0.2-6,0l-0.5-7.5
			c1.7,0.3,3.5,0.4,5.3,0.3c3.1-0.2,5.6-0.9,7.6-1.9c1.9-1.1,3.4-2.6,4.3-4.6c0.9-2,1.3-4.8,1.3-8.2l-0.4,0c-1,2-2.3,3.4-3.7,4.3
			c-1.5,0.9-3.3,1.4-5.6,1.5c-3.8,0.3-6.9-0.7-9.3-3c-2.4-2.3-3.7-5.6-4-10c-0.3-4.7,0.7-8.5,3.2-11.5c2.5-2.9,6-4.6,10.6-4.9
			c3.2-0.2,6.1,0.3,8.7,1.7c2.5,1.4,4.6,3.4,6.1,6.2C397.2,121.2,398.1,124.6,398.4,128.6z M381.7,117.9c-1.9,0.1-3.4,0.9-4.4,2.3
			c-1,1.4-1.4,3.3-1.2,5.8c0.2,2.1,0.8,3.8,1.8,4.9c1.1,1.2,2.6,1.7,4.6,1.5c1.9-0.1,3.5-0.9,4.7-2.2c1.3-1.3,1.8-2.8,1.7-4.4
			c-0.2-2.4-0.9-4.4-2.3-5.9C385.3,118.5,383.6,117.8,381.7,117.9z"/>
	</g>
        <g>
		<path class="st3" d="M262.9,264.1l-5.4,0.6l-1.7-14.8l-0.2-2.4l-0.2-2.7c-0.8,1-1.4,1.7-1.7,2l-2.7,2.7l-3-3l7.5-7.5l4.4-0.5
			L262.9,264.1z"/>
            <path class="st3" d="M277.5,245.8c2.5-0.3,4.5,0.2,6.1,1.4c1.6,1.2,2.6,3,2.8,5.5c0.3,2.9-0.3,5.2-1.9,6.9c-1.6,1.7-4,2.8-7.3,3.2
			c-2.8,0.3-5.2,0.1-7.1-0.6l-0.5-4.7c1,0.4,2.1,0.7,3.4,0.8c1.3,0.2,2.4,0.2,3.5,0.1c3.3-0.4,4.8-1.9,4.5-4.6
			c-0.3-2.6-2.2-3.7-5.6-3.3c-0.6,0.1-1.3,0.2-2,0.4c-0.7,0.2-1.3,0.4-1.8,0.6l-2.3-0.9l-0.5-13.2l13.9-1.6l0.5,4.6l-9.1,1l0.1,5.1
			l0.6-0.2C275.6,246.1,276.4,246,277.5,245.8z"/>
            <path class="st3" d="M316.1,245c0.5,4.5,0.2,7.9-1.1,10.2c-1.2,2.3-3.4,3.6-6.4,4c-3,0.3-5.3-0.5-7.1-2.6c-1.8-2-2.9-5.2-3.4-9.6
			c-0.5-4.5-0.2-7.9,1.1-10.2c1.2-2.3,3.3-3.6,6.4-4c3-0.3,5.3,0.5,7.1,2.6C314.5,237.5,315.6,240.7,316.1,245z M303.6,246.5
			c0.4,3.1,0.9,5.4,1.6,6.7c0.7,1.3,1.7,1.9,3,1.7c1.3-0.1,2.1-0.9,2.5-2.4c0.4-1.4,0.4-3.7,0.1-6.8c-0.4-3.1-0.9-5.4-1.6-6.7
			c-0.7-1.3-1.7-1.9-3-1.7c-1.3,0.1-2.1,0.9-2.5,2.4C303.3,241,303.2,243.3,303.6,246.5z"/>
            <path class="st3" d="M336.6,242.7c0.5,4.5,0.2,7.9-1.1,10.2c-1.2,2.3-3.4,3.6-6.4,4c-3,0.3-5.3-0.5-7.1-2.6
			c-1.8-2-2.9-5.2-3.4-9.6c-0.5-4.5-0.2-7.9,1.1-10.2c1.2-2.3,3.3-3.6,6.4-4c3-0.3,5.3,0.5,7.1,2.6
			C335,235.2,336.1,238.4,336.6,242.7z M324.1,244.1c0.4,3.1,0.9,5.4,1.6,6.7c0.7,1.3,1.7,1.9,3,1.7c1.3-0.1,2.1-0.9,2.5-2.4
			c0.4-1.4,0.4-3.7,0.1-6.8c-0.4-3.1-0.9-5.4-1.6-6.7c-0.7-1.3-1.7-1.9-3-1.7c-1.3,0.1-2.1,0.9-2.5,2.4
			C323.7,238.7,323.7,241,324.1,244.1z"/>
            <path class="st3" d="M357.1,240.4c0.5,4.5,0.2,7.9-1.1,10.2c-1.2,2.3-3.4,3.6-6.4,4c-3,0.3-5.3-0.5-7.1-2.6
			c-1.8-2-2.9-5.2-3.4-9.6c-0.5-4.5-0.2-7.9,1.1-10.2c1.2-2.3,3.3-3.6,6.4-4c3-0.3,5.3,0.5,7.1,2.6
			C355.4,232.9,356.6,236.1,357.1,240.4z M344.5,241.8c0.4,3.1,0.9,5.4,1.6,6.7c0.7,1.3,1.7,1.9,3,1.7c1.3-0.1,2.1-0.9,2.5-2.4
			c0.4-1.4,0.4-3.7,0.1-6.8c-0.4-3.1-0.9-5.4-1.6-6.7c-0.7-1.3-1.7-1.9-3-1.7c-1.3,0.1-2.1,0.9-2.5,2.4
			C344.2,236.4,344.2,238.7,344.5,241.8z"/>
            <path class="st3" d="M375.8,240.4l2-3.2l4.8-6.6l6-0.7l-6.8,9.4l9.5,10.1l-6.2,0.7l-6.5-7.3l-2.1,2.1l0.7,6.1l-5.3,0.6l-3.1-27.2
			l5.3-0.6l1.4,12.2L375.8,240.4L375.8,240.4z"/>
            <path class="st3" d="M411.7,247.1l-5.3,0.6l-1.3-11.4c-0.2-1.4-0.5-2.4-1.1-3.1c-0.6-0.7-1.3-0.9-2.4-0.8
			c-1.4,0.2-2.3,0.8-2.8,1.8c-0.5,1.1-0.6,2.8-0.4,5.1l1,9.2l-5.3,0.6l-2.2-19.6l4.1-0.5l1,2.4l0.3,0c0.4-1,1.1-1.7,2-2.4
			c0.9-0.6,2-1,3.3-1.1c2.9-0.3,5,0.4,6.3,2.2l0.5-0.1c0.4-1,1.1-1.8,2.1-2.4c1-0.6,2.1-1,3.4-1.1c2.2-0.3,4,0.1,5.2,1.1
			c1.3,1,2,2.8,2.3,5.3l1.5,12.8l-5.4,0.6l-1.3-11.4c-0.2-1.4-0.5-2.4-1.1-3.1c-0.6-0.7-1.3-0.9-2.4-0.8c-1.3,0.1-2.2,0.7-2.8,1.7
			c-0.5,1-0.7,2.5-0.5,4.6L411.7,247.1z"/>
	</g>
        <polygon class="st3" points="158.7,237.5 158.7,258.3 175.2,249.7 	"/>
</g>
    <g id="lettre">
	<g>
		<g>
			<path class="st4" d="M408.4,407l-143.7,17.8c-5.4,0.7-9.8-3.2-9.8-8.6v-81.8c0-5.4,4.4-10.3,9.8-11l143.7-16.9
				c5.4-0.6,9.8,3.2,9.8,8.6v81C418.2,401.4,413.8,406.3,408.4,407z"/>
            <path class="st4" d="M254.9,346.3l71.7,61.1c5.5,4.7,14.3,3.6,19.9-2.5l71.7-78.1"/>
            <line class="st4" x1="271.4" y1="423.9" x2="306.6" y2="390.4"/>
            <line class="st4" x1="369.1" y1="382.8" x2="401.7" y2="407.8"/>
		</g>
	</g>
</g>
</svg>
