<svg xmlns="http://www.w3.org/2000/svg" xmlns:xlink="http://www.w3.org/1999/xlink" width="602.48" height="465.595" viewBox="0 0 602.48 465.595"><defs><clipPath id="a"><path d="M779.34,338.16s-63.76,6.6-165.16,16.09-177.9,80.48-128,148.37c7.24,9.85,39.68,8,44.05,19.31,3.07,7.94-2.24,30.9,17,37.24,53.73,17.76,109.38,21.79,158-81.1C751.53,380,761,360.81,779.34,338.16Z" fill="none"/></clipPath></defs><g transform="translate(-298.8 -337.775)"><path d="M411.61,726.82v75.81H403.4V727.32c0-30.82-16.4-47-44.49-47C326.6,680.34,307,701.22,307,733v69.6h-8.2v-129h8v31.6c8.2-19.89,26.84-32.56,52.94-32.56C391.23,672.64,411.61,691.28,411.61,726.82Z" fill="#EEE"/><path d="M590.56,739.25H477.47c.5,33.55,24.61,56.67,57.42,56.67,16.9,0,32.81-6.22,42.75-19.14l5.22,5.47c-11.68,13.92-29.08,21.12-48,21.12-38,0-65.37-27.09-65.37-65.36s25.85-65.37,60.64-65.37c34.31,0,60.4,26.59,60.4,64.37Zm-112.84-6.71H582.86c-2-30.33-23.61-52.45-52.7-52.45C500.84,680.09,479.46,702.21,477.72,732.54Z" fill="#EEE"/><path d="M635.05,738c0-38.28,27.09-65.37,63.38-65.37,36.54,0,63.38,27.09,63.38,65.37S735,803.37,698.43,803.37C662.14,803.37,635.05,776.28,635.05,738Zm118.56,0c0-34.3-23.61-57.67-55.18-57.67S643.25,703.71,643.25,738s23.62,57.91,55.18,57.91S753.61,772.31,753.61,738Z" fill="#EEE"/><path d="M801.08,786.22l4-6.46c9.69,8.7,27.09,16.41,47.23,16.41,29.08,0,40.76-10.94,40.76-26.85,0-40.76-87.24-11.93-87.24-62.38,0-18.4,14.91-34.3,47.22-34.3,15.91,0,33.31,5.22,43.25,13.17l-4.23,6.46c-10.44-8.2-25.1-12.18-39.27-12.18-26.84,0-38.52,11.68-38.52,26.6,0,42,87,13.67,87,62.63,0,20.14-16.65,34-49.21,34C830.91,803.37,811,796.17,801.08,786.22Z" fill="#EEE"/><path d="M596.56,575.09c-19.12,0-40.36-4.53-58.71-19.68-16.64-13.73-1.84-29-11.82-35.47-12.36-8-28.89-3.5-41.18-16.34-20.16-21.06-20.65-48.71-9.77-72.94,18.23-40.62,74.07-72,139-78.06,100.23-9.38,148.93-14.44,150-14.54,12-1.59,14.53,3.73,10.13,9.59-17,24-22.24,35.43-67.44,131.13-28.27,59.83-62.66,92.11-102.21,95.93Q600.54,575.09,596.56,575.09ZM758.42,355.75c3.86-7.24,10.06-14.8,1.51-13.95-20,2-65.35,6.59-145.59,14.1-63.73,6-118.48,36.55-136.23,76.12-10.36,23.08-5.39,38.64,11.13,61.11,5.87,8,26.59,14.9,39.16,24.48,11,8.4,9.23,22.28,20.05,31.24,17.82,14.75,33.08,13.83,51.55,13.83,2.54,0,11.57-.45,13.93-1.36,39.23-15.14,55.42-27.78,83.15-86.48,22.52-47.67,36.34-74.15,47-94.4C752.24,364.88,752.29,367.27,758.42,355.75Z" fill="#EEE"/><path d="M443,578.5c-3.7-3.56-3.15-9.63-2.53-10.06l62.85-33.82a1.373,1.373,0,1,1,1.56,2.26l-54.27,44.69C449,582.42,443.31,578.84,443,578.5Z" fill="#EEE"/><g clip-path="url(#a)"><path d="M539.49,562.28c-1.22-.72-29.89-17.89-35.22-50.73-4-24.47,6.18-50.81,30.18-78.28a71.3,71.3,0,0,1,22.8-17.84c13.33-6.63,34.7-11.65,60.87,2.12,33.84,17.8,25.83,45.29,20,65.35-2.89,9.93-5.39,18.5-2.23,23.13,6.32,9.27,11,13.24,15.46,13.28h.07c4.6,0,9.79-4.17,15.89-12.74,5.8-8.17,6.58-24.29,2-42.08-8-31.21-25.78-49.59-39.78-56.39-36.53-17.75-62.8-24.58-119.62,30A70.35,70.35,0,0,0,495.45,464c-4.72,15-6.81,38.91,10.1,67.91l-2.86,1.67c-17.57-30.12-15.33-55.09-10.36-70.74,5.4-17,14.86-26.69,15.26-27.1,27.59-26.5,49.85-40.22,70.09-43.21,19.42-2.87,35.63,4,53.31,12.6,14.67,7.13,33.29,26.25,41.55,58.55,4.86,19,3.91,35.76-2.55,44.83-6.89,9.71-12.87,14.19-18.69,14.14-7.19-.07-13-7.12-18.17-14.72-4-5.93-1.35-15.2,1.78-25.94,5.84-20,13.1-44.94-18.34-61.48-20-10.53-39.47-11.23-57.84-2.09a68.81,68.81,0,0,0-21.69,17l-.06.07c-23.33,26.69-33.23,52.11-29.44,75.56,5.06,31.29,33.35,48.26,33.63,48.43Z" fill="#EEE"/><path d="M532.92,557.47c-19.06-33.21-16.72-66.21-11.4-88,5.75-23.62,15.85-39.17,16.27-39.82l2.78,1.82a137.58,137.58,0,0,0-15.85,38.9c-5.16,21.22-7.41,53.27,11.08,85.48Z" fill="#EEE"/><path d="M494.51,516.49s-1.75-4.95-11.92-31.43c-9.6-25-3.53-38.64-1.44-42.23,2.27-3.9,5.46-6.33,9-6.87,9.22-1.39,43.23-22.47,43.57-22.68l1.75,2.82c-1.42.88-34.93,21.65-44.82,23.15-2.5.38-4.85,2.24-6.6,5.25-6,10.27-3,27.07,1.67,39.37,10.21,26.6,11.88,31.34,11.95,31.53Z" fill="#EEE"/><path d="M566.65,570.22c-11.47-7.37-30.56-28.21-29.51-85.06.53-28.25,11.67-50.43,29.81-59.3,13.43-6.58,28.46-4.88,41.22,4.66,18.25,13.63,15.39,31.63,12.36,50.69-1.83,11.52-3.73,23.44-1.06,35.12,3.49,15.26,12.15,24.08,24.39,24.84,15.36,1,32.51-11.11,38.26-26.9,4.3-11.83,6-36,.76-59.19-4.64-20.78-16.42-48.93-46.22-65-52.27-28.16-86.2-28.66-113.47-1.66-14.29,14.15-17.06,19.28-17.6,20.81,1.82-.27,8.54-2.57,31.1-18.53,17.17-12.13,39.87-13,65.65-2.53a148.417,148.417,0,0,1,33.88,19.51l-2.09,2.59A148,148,0,0,0,601,391.22c-25-10.14-46-9.39-62.4,2.21-10.36,7.32-18.58,12.63-24.43,15.77-6.58,3.54-9.88,4.23-11.41,2.4-1.14-1.35-3.49-4.16,18.09-25.53,28.49-28.21,63.59-27.89,117.38,1.1,30.9,16.65,43.09,45.73,47.88,67.19,5.58,25,3.45,49.14-.88,61-6.22,17.07-24.86,30.12-41.59,29.07-8-.49-22.23-4.72-27.41-27.41-2.82-12.31-.87-24.55,1-36.38,3-18.82,5.57-35.08-11.06-47.51-11.74-8.77-25.51-10.35-37.79-4.34-17,8.32-27.44,29.4-27.94,56.39-.35,19.08,1.67,65.3,28,82.19Z" fill="#EEE"/><path d="M655.51,504.45l-2.88-1.64c.2-.36,20.24-36.89-6.48-82.25l2.86-1.69c14.48,24.58,15.49,46.49,13.8,60.55C661,494.71,655.74,504.06,655.51,504.45Z" fill="#EEE"/><path d="M594.4,572.55c-36.29-17.49-50.8-50.44-42-95.28,2.18-11,7.16-20.71,14-27.23,6.52-6.19,14.26-9.05,21.22-7.86,11.95,2,22.94,16.48,18,50.87-3.24,22.36,0,39,9.73,49.53,11.81,12.8,29.39,11.84,29.56,11.82l.22,3.32c-.78,0-19.28,1.1-32.19-12.85-10.43-11.28-14-28.87-10.61-52.29,4.63-32-4.83-45.35-15.24-47.13-11.64-2-27,9.86-31.43,32.46-8.52,43.2,5.36,74.89,40.14,91.65Z" fill="#EEE"/><path d="M615,570.08a187.634,187.634,0,0,1-27.33-22.68c-17.83-18.15-25.52-34.86-22.84-49.65,3.78-20.84,10.93-34.51,17.7-34,3.19.23,7.1,3.53,7.61,17.95.42,11.7-1,16.58-2.21,20.5-1.6,5.36-2.76,9.24,3,30.18v.11c0,.17,3.63,16.82,26,34.93ZM582.19,467c-3.43,0-10.17,9.81-14.07,31.31-3.53,19.49,14.1,40,29.12,53.54-7.61-10.3-9.36-17.82-9.55-18.71-6-21.81-4.68-26.06-2.92-31.95,1.16-3.88,2.47-8.27,2.07-19.44-.4-11.41-3-14.64-4.53-14.75Z" fill="#EEE"/><path d="M640.56,370.76c-47.95-31.13-82-14.22-82.36-14.05l-1.52-2.95c.37-.19,9.18-4.65,24.23-5.12,13.79-.44,35.62,2.56,61.46,19.34Z" fill="#EEE"/><path d="M697.67,513l-3-1.42a86.65,86.65,0,0,0,7.39-52.21c-2.4-14.4-8.31-29.1-17.58-43.68A182.853,182.853,0,0,0,648,374.45l2-2.62a186.73,186.73,0,0,1,37.18,42C708.74,447.62,712.35,481.91,697.67,513Z" fill="#EEE"/><path d="M705.82,485.65l-3.19-.95c7.62-25.59,3.4-49.65,3.09-51.32-7.54-23.29-18.37-42.67-32.2-57.62a110.82,110.82,0,0,0-38.59-27.23c-24.85-10.44-46-8.38-46.17-8.36l-.35-3.3c.89-.09,22-2.18,47.65,8.53,23.59,9.88,55.38,33,72.86,87.06v.19a121.609,121.609,0,0,1-3.1,53Z" fill="#EEE"/><path d="M719.34,486.44l-2.9-1.62c16.53-29.61,7.8-62.61,7.34-64.28-17.27-44.58-44.52-67.39-64.35-78.67C638,329.66,620.5,328,620.33,327.94l.3-3.31c.74.07,18.39,1.79,40.45,14.35,20.3,11.56,48.21,34.9,65.83,80.44v.13C727.37,421,736.91,455,719.34,486.44Z" fill="#EEE"/><path d="M729.31,454.12l-3.3-.4a300.627,300.627,0,0,0,2.06-48.22c-4.37-30-24.12-51.33-39.92-63.93a152.579,152.579,0,0,0-33.84-20.46l1.23-3.08a151.861,151.861,0,0,1,34.6,20.89c16.32,13,36.71,35,41.22,66.18v.13a302.3,302.3,0,0,1-2.05,48.89Z" fill="#EEE"/><path d="M740.82,453.2l-3-1.44c3.64-7.57,9.27-29.06,9.61-30.37,9.17-51.48-59.41-100.21-60.1-100.69l1.9-2.72a212.271,212.271,0,0,1,34.27,31.54c21.78,25.19,31.18,50.27,27.19,72.52v.12C750.43,423.1,744.7,445.14,740.82,453.2Z" fill="#EEE"/><path d="M747.32,357.24c-1.38-7.3-20.2-21.76-27.34-26.72l1.9-2.73c2.74,1.91,26.82,18.89,28.7,28.83Z" fill="#EEE"/><path d="M745.56,440.12,742.44,439c4.42-12.21,13.06-41.43,13.83-44,1.06-21.21-34.75-43-35.11-43.2l1.71-2.85a130.226,130.226,0,0,1,18.73,14.21c12.52,11.51,18.57,22.36,18,32.22v.19l-.06.18C759.42,396,750.2,427.3,745.56,440.12Z" fill="#EEE"/><path d="M764.07,410.33l-3-1.46c17.4-35.82-7.61-66.83-7.87-67.14l2.56-2.11a71.77,71.77,0,0,1,11.12,21A64.38,64.38,0,0,1,764.07,410.33Z" fill="#EEE"/><path d="M769.76,392.56l-3.31-.09c.47-17.57,19.12-40.28,19.92-41.24l2.55,2.12C788.74,353.58,770.21,376.13,769.76,392.56Z" fill="#EEE"/><path d="M776.29,351.08l-3.2-.89v.07s.35-2.26-3.9-5.11l1.86-2.76C777.32,346.62,776.41,350.64,776.29,351.08Z" fill="#EEE"/><path d="M498.4,549.65c-16.59-11.32-31.19-64.63-31.8-66.89l3.21-.87c.14.54,14.88,54.38,30.46,65Z" fill="#EEE"/><path d="M461.65,560.37c-4.49,0-11-2.1-20-6.36h-.11a25.31,25.31,0,0,0-9-2.4c-5.19-.53-13.49-.07-23.52,5.09l-1.52-2.95c20.5-10.56,34.5-3.34,35.66-2.75,16.8,8,20.92,6.09,21.92,4.9,2.91-3.51-3.94-16.34-9.74-24.33l-.14-.23c-.82-1.62-8-16-6.9-21.76l3.26.61c-.64,3.46,3.65,13.77,6.54,19.54,2.76,3.81,15.07,21.63,9.53,28.29C466.35,559.6,464.38,560.37,461.65,560.37Z" fill="#EEE"/><path d="M449.54,546.15c-5.85-5.16-8.63-18.4-8.75-19l3.26-.67c0,.12,2.67,12.72,7.68,17.14Z" fill="#EEE"/><path d="M563,581.5c-16-.58-29.84-9.38-38.59-16.65a98,98,0,0,1-15.28-15.76l2.68-2c.22.3,22.36,30,51.31,31Z" fill="#EEE"/><path d="M559.45,581.58c-36.44,0-67.41-23.24-67.72-23.48-.92-.69-22.56-17.32-30.16-44.31l3.2-.9c7.28,25.88,28.75,42.4,29,42.56s32.5,24.36,69.3,22.73l.14,3.32C561.93,581.55,560.68,581.58,559.45,581.58Z" fill="#EEE"/></g></g></svg>